<svg width="82" height="74" viewBox="0 0 82 74" fill="none" xmlns="http://www.w3.org/2000/svg">
<path d="M80.996 68.4637L58.996 20.797C58.4533 19.6237 57.335 18.8243 56.0517 18.6887C54.7537 18.553 53.5107 19.0993 52.7333 20.1333L32.9333 46.5333L21.2 37.7333C20.3273 37.0807 19.2127 36.846 18.1567 37.0953C17.097 37.3447 16.206 38.0523 15.7183 39.024L1.05166 68.3573C0.483329 69.494 0.545663 70.8433 1.213 71.925C1.88033 73.0067 3.061 73.6667 4.33333 73.6667H77.6667C78.917 73.6667 80.083 73.0287 80.754 71.9763C81.4287 70.924 81.5203 69.6003 80.996 68.4637Z" fill="#CECED2"/>
<path d="M26.3333 22.3333C32.4085 22.3333 37.3333 17.4085 37.3333 11.3333C37.3333 5.25821 32.4085 0.333344 26.3333 0.333344C20.2582 0.333344 15.3333 5.25821 15.3333 11.3333C15.3333 17.4085 20.2582 22.3333 26.3333 22.3333Z" fill="#CECED2"/>
</svg>
